<svg id="Calque_1" data-name="Calque 1" xmlns="http://www.w3.org/2000/svg" viewBox="0 0 24.72 40.01"><defs><style>.cls-1{fill:#009cde}</style></defs><title>Free</title><path class="cls-1" d="M27 56a.78.78 0 0 1-.69-1.13L45.9 16.42a.78.78 0 0 1 1.39.71L27.66 55.58A.78.78 0 0 1 27 56zm16.48-25.37a3.11 3.11 0 0 1-1.16-.22.78.78 0 0 1 .58-1.41 1.54 1.54 0 0 0 .58.11 1.8 1.8 0 0 0 1.24-.54 1.76 1.76 0 0 0 .56-1.38 3.38 3.38 0 0 0-.39-1.54 1 1 0 0 0-.4-.47.78.78 0 0 1 1-1.23 2.34 2.34 0 0 1 .84 1 4.92 4.92 0 0 1 .56 2.25 3.45 3.45 0 0 1-3.36 3.48v-.05zm-7.24 2.79h-3.17a.78.78 0 0 1-.73-1A9.18 9.18 0 0 1 33 30.9a7.44 7.44 0 0 1 1-1.32A5.5 5.5 0 0 1 36.13 28a6.8 6.8 0 0 1 2.4-.42.78.78 0 0 1 0 1.56 5.24 5.24 0 0 0-1.85.33 4 4 0 0 0-1.53 1.09 5.91 5.91 0 0 0-.76 1l-.13.23h2a.78.78 0 0 1 0 1.56zm3.83 3.5H38.8a.78.78 0 1 1 0-1.56h1.27A1.22 1.22 0 0 0 41 35a.85.85 0 0 0 .11-1.2l-.11-.11a1 1 0 0 0-.31-.21.78.78 0 0 1 .49-1.48h.12a2.53 2.53 0 0 1 .81.54 2.39 2.39 0 0 1 .14 3.46l-.14.14a2.73 2.73 0 0 1-2.04.78zM33 39.75h-.79a.78.78 0 0 1-.75-.59 3.26 3.26 0 0 1-.11-.79v-1.68a4.46 4.46 0 0 1 .13-.69.78.78 0 0 1 .75-.59h2.37a.78.78 0 0 1 0 1.56H33v1.28a.78.78 0 0 1 0 1.56zm5.23 3.49h-2.4a.78.78 0 0 1 0-1.56h2.41a1.21 1.21 0 0 0 .91-.31.84.84 0 0 0 .13-1.18l-.13-.13a1.22 1.22 0 0 0-.91-.31h-.7a.78.78 0 1 1 0-1.56h.7a2.73 2.73 0 0 1 2 .77 2.47 2.47 0 0 1 .76 1.76 2.43 2.43 0 0 1-.77 1.76 2.72 2.72 0 0 1-2 .76zm.34 10.58a14.74 14.74 0 0 1-2.44-.22 11.58 11.58 0 0 1-2.66-.8l-.26-.11a9.25 9.25 0 0 1-2.09-1.14.78.78 0 1 1 .88-1.26 7.79 7.79 0 0 0 1.79 1l.27.12a10 10 0 0 0 2.3.7 13.18 13.18 0 0 0 2.18.2 11.71 11.71 0 0 0 2-.2c.45-.08.89-.17 1.32-.28a7.63 7.63 0 0 0 1.21-.42 5.25 5.25 0 0 0 1.57-1 3.2 3.2 0 0 0 .84-1.31 2.28 2.28 0 0 0 .17-.83 2.36 2.36 0 0 0-.32-1.16 2 2 0 0 0-.74-.76 1.81 1.81 0 0 0-.91-.25 1.3 1.3 0 0 0-.62.13l-.71.42a6.58 6.58 0 0 1-1 .54c-.33.13-.67.26-1 .37h-.08l-.75.17a4.17 4.17 0 0 1-.92.1 6.9 6.9 0 0 1-2.35-.42 5.85 5.85 0 0 1-2.06-1.25c-.19-.16-.29-.28-.43-.43a.78.78 0 1 1 1.15-1l.34.34a4.33 4.33 0 0 0 1.53.93 5.35 5.35 0 0 0 1.82.33 2.63 2.63 0 0 0 .58-.06l.72-.27.87-.32a5.06 5.06 0 0 0 .79-.42l.79-.46a2.82 2.82 0 0 1 1.38-.33 3.37 3.37 0 0 1 1.67.53 3.62 3.62 0 0 1 1.33 1.34 4 4 0 0 1 .52 1.94 3.77 3.77 0 0 1-.25 1.34 4.74 4.74 0 0 1-1.23 1.91 6.77 6.77 0 0 1-2 1.27 9.18 9.18 0 0 1-1.45.5c-.47.12-1 .22-1.43.3a13.24 13.24 0 0 1-2.32.22z" transform="translate(-22.66 -15.99)"/><path class="cls-1" d="M28.49 48.61a.78.78 0 0 1-.62-.31 5.78 5.78 0 0 1-.87-1.48c-.09-.22-.2-.47-.35-.79a14.31 14.31 0 0 1-1-2.79h-.22a2.72 2.72 0 0 1-2-.77 2.42 2.42 0 0 1-.77-1.76 2.46 2.46 0 0 1 .79-1.71 2.59 2.59 0 0 1 1.49-.73v-1.35a2.59 2.59 0 0 1-1.5-.73 2.39 2.39 0 0 1-.14-3.38l.14-.14a2.73 2.73 0 0 1 2-.77h.31a16.17 16.17 0 0 1 .92-2.54 13.11 13.11 0 0 1 1.88-3A14.13 14.13 0 0 1 32.68 23a11.66 11.66 0 0 1 5.68-1.37 13.16 13.16 0 0 1 3 .35.88.88 0 0 1 .47.27.78.78 0 0 1-.71 1.34.94.94 0 0 1-.31-.14 11.57 11.57 0 0 0-2.47-.27 10.12 10.12 0 0 0-4.93 1.17 12.58 12.58 0 0 0-3.67 3A11.57 11.57 0 0 0 28.1 30a14.27 14.27 0 0 0-1 2.84.78.78 0 0 1-.76.61h-.92a1.22 1.22 0 0 0-.91.31.85.85 0 0 0-.11 1.24l.11.11a1.22 1.22 0 0 0 .91.31h.33a.78.78 0 0 1 .77.87 2.88 2.88 0 0 1-.06.69 4.29 4.29 0 0 0 0 .88 4.51 4.51 0 0 0 0 .48 6 6 0 0 1 0 .69.78.78 0 0 1-.78.78h-.29a1.22 1.22 0 0 0-.91.31.84.84 0 0 0-.13 1.18l.13.13a1.21 1.21 0 0 0 .91.31h.83a.78.78 0 0 1 .76.62 13.06 13.06 0 0 0 1 3c.18.36.29.63.39.88a4.26 4.26 0 0 0 .63 1.1.78.78 0 0 1-.62 1.25zm13-26.53z" transform="translate(-22.66 -15.99)"/></svg>