<svg id="Calque_1" data-name="Calque 1" xmlns="http://www.w3.org/2000/svg" viewBox="0 0 39.97 34.53"><defs><style>.cls-1{fill:#f2bd37}</style></defs><title>NonBinding</title><path class="cls-1" d="M31.75 39.23a.78.78 0 0 1-.4-.11l-3.9-2.31a4.84 4.84 0 0 1-1.7-6.63l.7-1.18a4.76 4.76 0 0 1 5.35-1.87.78.78 0 0 1-.35 1.52 3.26 3.26 0 0 0-3.66 1.15L27.1 31a3.28 3.28 0 0 0 1.15 4.49l3.9 2.31a.78.78 0 0 1-.4 1.45zm4.94-8.08a.78.78 0 0 1-.4-.11l-.64-.38a.78.78 0 0 1 .79-1.34l.64.38a.78.78 0 0 1-.4 1.45z" transform="translate(-15.99 -18.32)"/><path class="cls-1" d="M29.69 34a6.49 6.49 0 0 1-1.36-.15.78.78 0 0 1 .33-1.52 3.27 3.27 0 0 0 3.62-1.16L33 30a3.28 3.28 0 0 0-1.15-4.49l-8.61-5.1a3.28 3.28 0 0 0-4.49 1.15L18 22.68a3.29 3.29 0 0 0 1.15 4.49l5 3a.78.78 0 0 1-.79 1.34l-5-3a4.85 4.85 0 0 1-1.7-6.63l.69-1.16A4.84 4.84 0 0 1 24 19l8.61 5.1a4.84 4.84 0 0 1 1.7 6.63l-.69 1.16A4.36 4.36 0 0 1 29.69 34zm11.84 1a.78.78 0 0 1-.6-.28l-.49-.6a.78.78 0 1 1 1.2-1l.49.6a.78.78 0 0 1-.6 1.27zm-1.94 10.23h-.49a4.8 4.8 0 0 1-3.27-1.74l-2.63-3.24a.78.78 0 1 1 1.2-1l2.6 3.23a3.29 3.29 0 0 0 4.62.45l1-.86a2.78 2.78 0 0 0 .73-3.77.78.78 0 0 1 1.36-.77 4.33 4.33 0 0 1-1.1 5.75l-1 .86a4.79 4.79 0 0 1-3.02 1.09z" transform="translate(-15.99 -18.32)"/><path class="cls-1" d="M50.13 52.85h-.49a4.8 4.8 0 0 1-3.27-1.74l-3.72-4.53a.78.78 0 1 1 1.2-1l3.72 4.53a3.29 3.29 0 0 0 4.62.45l1-.86a3.29 3.29 0 0 0 .45-4.62l-6.35-7.74a3.28 3.28 0 0 0-4.62-.45l-1 .86a3.27 3.27 0 0 0-.6 3.75.78.78 0 1 1-1.46.56c-.61-1.71-.69-4.06 1.09-5.52l1-.86a4.84 4.84 0 0 1 6.81.67l6.35 7.74a4.85 4.85 0 0 1-.67 6.81l-1 .86a4.79 4.79 0 0 1-3.06 1.09z" transform="translate(-15.99 -18.32)"/></svg>