<svg id="Calque_1" data-name="Calque 1" xmlns="http://www.w3.org/2000/svg" viewBox="0 0 40 27.52"><defs><style>.cls-1{fill:#78b145}</style></defs><title>NoSpam</title><path class="cls-1" d="M42.72 49.65h-19.3a.79.79 0 1 1 0-1.58h19.3a.79.79 0 1 1 0 1.58zm9.51-11.33a.79.79 0 0 1-.79-.79V24.87H17.58v9a.79.79 0 0 1-1.58 0v-9.8a.79.79 0 0 1 .79-.79h35.44a.79.79 0 0 1 .79.79v13.46a.79.79 0 0 1-.79.79z" transform="translate(-16 -23.28)"/><path class="cls-1" d="M42 49.65H16.79a.79.79 0 0 1-.79-.79v-16a.79.79 0 0 1 1.58 0v15.21H42a.79.79 0 1 1 0 1.58zm-7.49-10.76a.79.79 0 0 1-.51-.17l-17.72-14a.8.8 0 0 1 1-1.24l17.23 13.61 17.23-13.62a.8.8 0 0 1 1 1.24L35 38.72a.79.79 0 0 1-.49.17zM50.46 50.8A5.54 5.54 0 1 1 56 45.26a5.54 5.54 0 0 1-5.54 5.54zm0-9.51a4 4 0 1 0 4 4 4 4 0 0 0-4-4z" transform="translate(-16 -23.28)"/><path class="cls-1" d="M47.14 49.37a.79.79 0 0 1-.56-1.37l6.64-6.64a.79.79 0 1 1 1.12 1.12l-6.64 6.65a.79.79 0 0 1-.56.24z" transform="translate(-16 -23.28)"/></svg>